<mxfile host="app.diagrams.net" modified="2024-06-02T18:35:19.124Z" agent="Mozilla/5.0 (Windows NT 10.0; Win64; x64) AppleWebKit/537.36 (KHTML, like Gecko) Chrome/125.0.0.0 Safari/537.36" etag="5xp05QFh59FwK9FVZ3k2" version="24.4.13" type="github">
  <diagram id="C5RBs43oDa-KdzZeNtuy" name="Page-1">
    <mxGraphModel dx="2074" dy="1106" grid="1" gridSize="10" guides="1" tooltips="1" connect="1" arrows="1" fold="1" page="1" pageScale="1" pageWidth="827" pageHeight="1169" math="0" shadow="0">
      <root>
        <mxCell id="WIyWlLk6GJQsqaUBKTNV-0" />
        <mxCell id="WIyWlLk6GJQsqaUBKTNV-1" parent="WIyWlLk6GJQsqaUBKTNV-0" />
        <mxCell id="1t3ubWink8qccPeIU27s-19" style="edgeStyle=orthogonalEdgeStyle;rounded=0;orthogonalLoop=1;jettySize=auto;html=1;exitX=0.5;exitY=1;exitDx=0;exitDy=0;entryX=0.5;entryY=0;entryDx=0;entryDy=0;" edge="1" parent="WIyWlLk6GJQsqaUBKTNV-1" source="1t3ubWink8qccPeIU27s-0" target="1t3ubWink8qccPeIU27s-2">
          <mxGeometry relative="1" as="geometry" />
        </mxCell>
        <mxCell id="1t3ubWink8qccPeIU27s-0" value="START" style="ellipse;whiteSpace=wrap;html=1;" vertex="1" parent="WIyWlLk6GJQsqaUBKTNV-1">
          <mxGeometry x="380" y="180" width="120" height="80" as="geometry" />
        </mxCell>
        <mxCell id="1t3ubWink8qccPeIU27s-1" value="Input destination" style="shape=parallelogram;perimeter=parallelogramPerimeter;whiteSpace=wrap;html=1;fixedSize=1;" vertex="1" parent="WIyWlLk6GJQsqaUBKTNV-1">
          <mxGeometry x="380" y="380" width="120" height="60" as="geometry" />
        </mxCell>
        <mxCell id="1t3ubWink8qccPeIU27s-20" style="edgeStyle=orthogonalEdgeStyle;rounded=0;orthogonalLoop=1;jettySize=auto;html=1;exitX=0.5;exitY=1;exitDx=0;exitDy=0;" edge="1" parent="WIyWlLk6GJQsqaUBKTNV-1" source="1t3ubWink8qccPeIU27s-2" target="1t3ubWink8qccPeIU27s-1">
          <mxGeometry relative="1" as="geometry" />
        </mxCell>
        <mxCell id="1t3ubWink8qccPeIU27s-2" value="ask user&#39;s for&lt;div&gt;their destination&lt;/div&gt;" style="shape=parallelogram;perimeter=parallelogramPerimeter;whiteSpace=wrap;html=1;fixedSize=1;" vertex="1" parent="WIyWlLk6GJQsqaUBKTNV-1">
          <mxGeometry x="380" y="290" width="120" height="60" as="geometry" />
        </mxCell>
        <mxCell id="1t3ubWink8qccPeIU27s-22" style="edgeStyle=orthogonalEdgeStyle;rounded=0;orthogonalLoop=1;jettySize=auto;html=1;exitX=0.5;exitY=1;exitDx=0;exitDy=0;" edge="1" parent="WIyWlLk6GJQsqaUBKTNV-1" source="1t3ubWink8qccPeIU27s-3" target="1t3ubWink8qccPeIU27s-4">
          <mxGeometry relative="1" as="geometry" />
        </mxCell>
        <mxCell id="1t3ubWink8qccPeIU27s-3" value="ask user&#39;s for&lt;div&gt;the distance&lt;/div&gt;" style="shape=parallelogram;perimeter=parallelogramPerimeter;whiteSpace=wrap;html=1;fixedSize=1;" vertex="1" parent="WIyWlLk6GJQsqaUBKTNV-1">
          <mxGeometry x="370" y="470" width="120" height="60" as="geometry" />
        </mxCell>
        <mxCell id="1t3ubWink8qccPeIU27s-23" style="edgeStyle=orthogonalEdgeStyle;rounded=0;orthogonalLoop=1;jettySize=auto;html=1;exitX=0.5;exitY=1;exitDx=0;exitDy=0;entryX=0.5;entryY=0;entryDx=0;entryDy=0;" edge="1" parent="WIyWlLk6GJQsqaUBKTNV-1" source="1t3ubWink8qccPeIU27s-4" target="1t3ubWink8qccPeIU27s-5">
          <mxGeometry relative="1" as="geometry" />
        </mxCell>
        <mxCell id="1t3ubWink8qccPeIU27s-4" value="&lt;br&gt;Input distance&amp;nbsp;&lt;div&gt;to destination&lt;br&gt;&lt;br&gt;&lt;/div&gt;" style="shape=parallelogram;perimeter=parallelogramPerimeter;whiteSpace=wrap;html=1;fixedSize=1;" vertex="1" parent="WIyWlLk6GJQsqaUBKTNV-1">
          <mxGeometry x="370" y="560" width="120" height="60" as="geometry" />
        </mxCell>
        <mxCell id="1t3ubWink8qccPeIU27s-24" style="edgeStyle=orthogonalEdgeStyle;rounded=0;orthogonalLoop=1;jettySize=auto;html=1;exitX=0.5;exitY=1;exitDx=0;exitDy=0;entryX=0.5;entryY=0;entryDx=0;entryDy=0;" edge="1" parent="WIyWlLk6GJQsqaUBKTNV-1" source="1t3ubWink8qccPeIU27s-5" target="1t3ubWink8qccPeIU27s-6">
          <mxGeometry relative="1" as="geometry" />
        </mxCell>
        <mxCell id="1t3ubWink8qccPeIU27s-5" value="ask user&#39;s travel&lt;div&gt;speed&lt;/div&gt;" style="shape=parallelogram;perimeter=parallelogramPerimeter;whiteSpace=wrap;html=1;fixedSize=1;" vertex="1" parent="WIyWlLk6GJQsqaUBKTNV-1">
          <mxGeometry x="370" y="650" width="120" height="60" as="geometry" />
        </mxCell>
        <mxCell id="1t3ubWink8qccPeIU27s-25" style="edgeStyle=orthogonalEdgeStyle;rounded=0;orthogonalLoop=1;jettySize=auto;html=1;exitX=0.5;exitY=1;exitDx=0;exitDy=0;entryX=0.5;entryY=0;entryDx=0;entryDy=0;" edge="1" parent="WIyWlLk6GJQsqaUBKTNV-1" source="1t3ubWink8qccPeIU27s-6" target="1t3ubWink8qccPeIU27s-7">
          <mxGeometry relative="1" as="geometry" />
        </mxCell>
        <mxCell id="1t3ubWink8qccPeIU27s-6" value="Input travel speed" style="shape=parallelogram;perimeter=parallelogramPerimeter;whiteSpace=wrap;html=1;fixedSize=1;" vertex="1" parent="WIyWlLk6GJQsqaUBKTNV-1">
          <mxGeometry x="370" y="740" width="120" height="60" as="geometry" />
        </mxCell>
        <mxCell id="1t3ubWink8qccPeIU27s-26" style="edgeStyle=orthogonalEdgeStyle;rounded=0;orthogonalLoop=1;jettySize=auto;html=1;exitX=0.5;exitY=1;exitDx=0;exitDy=0;entryX=0.5;entryY=0;entryDx=0;entryDy=0;" edge="1" parent="WIyWlLk6GJQsqaUBKTNV-1" source="1t3ubWink8qccPeIU27s-7" target="1t3ubWink8qccPeIU27s-8">
          <mxGeometry relative="1" as="geometry" />
        </mxCell>
        <mxCell id="1t3ubWink8qccPeIU27s-7" value="ask user&#39;s for&amp;nbsp;&lt;br&gt;MPG" style="shape=parallelogram;perimeter=parallelogramPerimeter;whiteSpace=wrap;html=1;fixedSize=1;" vertex="1" parent="WIyWlLk6GJQsqaUBKTNV-1">
          <mxGeometry x="360" y="830" width="120" height="60" as="geometry" />
        </mxCell>
        <mxCell id="1t3ubWink8qccPeIU27s-8" value="Input miles&amp;nbsp;&lt;div&gt;per gallon&lt;/div&gt;" style="shape=parallelogram;perimeter=parallelogramPerimeter;whiteSpace=wrap;html=1;fixedSize=1;" vertex="1" parent="WIyWlLk6GJQsqaUBKTNV-1">
          <mxGeometry x="360" y="920" width="120" height="60" as="geometry" />
        </mxCell>
        <mxCell id="1t3ubWink8qccPeIU27s-28" style="edgeStyle=orthogonalEdgeStyle;rounded=0;orthogonalLoop=1;jettySize=auto;html=1;exitX=0.5;exitY=1;exitDx=0;exitDy=0;entryX=0.5;entryY=0;entryDx=0;entryDy=0;" edge="1" parent="WIyWlLk6GJQsqaUBKTNV-1" source="1t3ubWink8qccPeIU27s-9" target="1t3ubWink8qccPeIU27s-10">
          <mxGeometry relative="1" as="geometry" />
        </mxCell>
        <mxCell id="1t3ubWink8qccPeIU27s-9" value="ask user&#39;s cost&lt;div&gt;per gallon&lt;/div&gt;" style="shape=parallelogram;perimeter=parallelogramPerimeter;whiteSpace=wrap;html=1;fixedSize=1;" vertex="1" parent="WIyWlLk6GJQsqaUBKTNV-1">
          <mxGeometry x="350" y="1010" width="120" height="60" as="geometry" />
        </mxCell>
        <mxCell id="1t3ubWink8qccPeIU27s-10" value="Input cost&amp;nbsp;&lt;div&gt;per gallon&lt;/div&gt;" style="shape=parallelogram;perimeter=parallelogramPerimeter;whiteSpace=wrap;html=1;fixedSize=1;" vertex="1" parent="WIyWlLk6GJQsqaUBKTNV-1">
          <mxGeometry x="350" y="1100" width="120" height="60" as="geometry" />
        </mxCell>
        <mxCell id="1t3ubWink8qccPeIU27s-30" style="edgeStyle=orthogonalEdgeStyle;rounded=0;orthogonalLoop=1;jettySize=auto;html=1;exitX=0.5;exitY=1;exitDx=0;exitDy=0;" edge="1" parent="WIyWlLk6GJQsqaUBKTNV-1" source="1t3ubWink8qccPeIU27s-11" target="1t3ubWink8qccPeIU27s-12">
          <mxGeometry relative="1" as="geometry" />
        </mxCell>
        <mxCell id="1t3ubWink8qccPeIU27s-11" value="Calculate travel time" style="rounded=0;whiteSpace=wrap;html=1;" vertex="1" parent="WIyWlLk6GJQsqaUBKTNV-1">
          <mxGeometry x="340" y="1190" width="120" height="60" as="geometry" />
        </mxCell>
        <mxCell id="1t3ubWink8qccPeIU27s-31" style="edgeStyle=orthogonalEdgeStyle;rounded=0;orthogonalLoop=1;jettySize=auto;html=1;exitX=0.5;exitY=1;exitDx=0;exitDy=0;entryX=0.5;entryY=0;entryDx=0;entryDy=0;" edge="1" parent="WIyWlLk6GJQsqaUBKTNV-1" source="1t3ubWink8qccPeIU27s-12" target="1t3ubWink8qccPeIU27s-13">
          <mxGeometry relative="1" as="geometry" />
        </mxCell>
        <mxCell id="1t3ubWink8qccPeIU27s-12" value="Calculate time = distance / speed" style="rounded=0;whiteSpace=wrap;html=1;" vertex="1" parent="WIyWlLk6GJQsqaUBKTNV-1">
          <mxGeometry x="340" y="1280" width="120" height="60" as="geometry" />
        </mxCell>
        <mxCell id="1t3ubWink8qccPeIU27s-32" style="edgeStyle=orthogonalEdgeStyle;rounded=0;orthogonalLoop=1;jettySize=auto;html=1;exitX=0.5;exitY=1;exitDx=0;exitDy=0;entryX=0.5;entryY=0;entryDx=0;entryDy=0;" edge="1" parent="WIyWlLk6GJQsqaUBKTNV-1" source="1t3ubWink8qccPeIU27s-13" target="1t3ubWink8qccPeIU27s-14">
          <mxGeometry relative="1" as="geometry" />
        </mxCell>
        <mxCell id="1t3ubWink8qccPeIU27s-13" value="Calculate fuel cost&amp;nbsp;" style="rounded=0;whiteSpace=wrap;html=1;" vertex="1" parent="WIyWlLk6GJQsqaUBKTNV-1">
          <mxGeometry x="340" y="1370" width="120" height="60" as="geometry" />
        </mxCell>
        <mxCell id="1t3ubWink8qccPeIU27s-33" style="edgeStyle=orthogonalEdgeStyle;rounded=0;orthogonalLoop=1;jettySize=auto;html=1;exitX=0.5;exitY=1;exitDx=0;exitDy=0;entryX=0.5;entryY=0;entryDx=0;entryDy=0;" edge="1" parent="WIyWlLk6GJQsqaUBKTNV-1" source="1t3ubWink8qccPeIU27s-14" target="1t3ubWink8qccPeIU27s-15">
          <mxGeometry relative="1" as="geometry" />
        </mxCell>
        <mxCell id="1t3ubWink8qccPeIU27s-14" value="&#xa;Calculate number of gallons = distance / miles per gallon&#xa;&#xa;" style="rounded=0;whiteSpace=wrap;html=1;" vertex="1" parent="WIyWlLk6GJQsqaUBKTNV-1">
          <mxGeometry x="340" y="1470" width="120" height="60" as="geometry" />
        </mxCell>
        <mxCell id="1t3ubWink8qccPeIU27s-34" style="edgeStyle=orthogonalEdgeStyle;rounded=0;orthogonalLoop=1;jettySize=auto;html=1;exitX=0.5;exitY=1;exitDx=0;exitDy=0;entryX=0.5;entryY=0;entryDx=0;entryDy=0;" edge="1" parent="WIyWlLk6GJQsqaUBKTNV-1" source="1t3ubWink8qccPeIU27s-15" target="1t3ubWink8qccPeIU27s-16">
          <mxGeometry relative="1" as="geometry" />
        </mxCell>
        <mxCell id="1t3ubWink8qccPeIU27s-15" value="Calculate total cost = number of gallons * cost per gallon" style="rounded=0;whiteSpace=wrap;html=1;" vertex="1" parent="WIyWlLk6GJQsqaUBKTNV-1">
          <mxGeometry x="340" y="1570" width="120" height="60" as="geometry" />
        </mxCell>
        <mxCell id="1t3ubWink8qccPeIU27s-35" style="edgeStyle=orthogonalEdgeStyle;rounded=0;orthogonalLoop=1;jettySize=auto;html=1;exitX=0.5;exitY=1;exitDx=0;exitDy=0;entryX=0.5;entryY=0;entryDx=0;entryDy=0;" edge="1" parent="WIyWlLk6GJQsqaUBKTNV-1" source="1t3ubWink8qccPeIU27s-16" target="1t3ubWink8qccPeIU27s-17">
          <mxGeometry relative="1" as="geometry" />
        </mxCell>
        <mxCell id="1t3ubWink8qccPeIU27s-16" value="Display travel time" style="shape=parallelogram;perimeter=parallelogramPerimeter;whiteSpace=wrap;html=1;fixedSize=1;" vertex="1" parent="WIyWlLk6GJQsqaUBKTNV-1">
          <mxGeometry x="340" y="1660" width="120" height="60" as="geometry" />
        </mxCell>
        <mxCell id="1t3ubWink8qccPeIU27s-36" style="edgeStyle=orthogonalEdgeStyle;rounded=0;orthogonalLoop=1;jettySize=auto;html=1;exitX=0.5;exitY=1;exitDx=0;exitDy=0;entryX=0.5;entryY=0;entryDx=0;entryDy=0;" edge="1" parent="WIyWlLk6GJQsqaUBKTNV-1" source="1t3ubWink8qccPeIU27s-17" target="1t3ubWink8qccPeIU27s-18">
          <mxGeometry relative="1" as="geometry" />
        </mxCell>
        <mxCell id="1t3ubWink8qccPeIU27s-17" value="&lt;span class=&quot;hljs-deletion&quot;&gt;Display total cost&lt;/span&gt;" style="shape=parallelogram;perimeter=parallelogramPerimeter;whiteSpace=wrap;html=1;fixedSize=1;" vertex="1" parent="WIyWlLk6GJQsqaUBKTNV-1">
          <mxGeometry x="340" y="1754" width="120" height="60" as="geometry" />
        </mxCell>
        <mxCell id="1t3ubWink8qccPeIU27s-18" value="END" style="ellipse;whiteSpace=wrap;html=1;" vertex="1" parent="WIyWlLk6GJQsqaUBKTNV-1">
          <mxGeometry x="340" y="1860" width="120" height="80" as="geometry" />
        </mxCell>
        <mxCell id="1t3ubWink8qccPeIU27s-21" style="edgeStyle=orthogonalEdgeStyle;rounded=0;orthogonalLoop=1;jettySize=auto;html=1;exitX=0.5;exitY=1;exitDx=0;exitDy=0;entryX=0.583;entryY=0.05;entryDx=0;entryDy=0;entryPerimeter=0;" edge="1" parent="WIyWlLk6GJQsqaUBKTNV-1" source="1t3ubWink8qccPeIU27s-1" target="1t3ubWink8qccPeIU27s-3">
          <mxGeometry relative="1" as="geometry" />
        </mxCell>
        <mxCell id="1t3ubWink8qccPeIU27s-27" style="edgeStyle=orthogonalEdgeStyle;rounded=0;orthogonalLoop=1;jettySize=auto;html=1;exitX=0.5;exitY=1;exitDx=0;exitDy=0;entryX=0.6;entryY=-0.067;entryDx=0;entryDy=0;entryPerimeter=0;" edge="1" parent="WIyWlLk6GJQsqaUBKTNV-1" source="1t3ubWink8qccPeIU27s-8" target="1t3ubWink8qccPeIU27s-9">
          <mxGeometry relative="1" as="geometry" />
        </mxCell>
        <mxCell id="1t3ubWink8qccPeIU27s-29" style="edgeStyle=orthogonalEdgeStyle;rounded=0;orthogonalLoop=1;jettySize=auto;html=1;exitX=0.5;exitY=1;exitDx=0;exitDy=0;entryX=0.575;entryY=0;entryDx=0;entryDy=0;entryPerimeter=0;" edge="1" parent="WIyWlLk6GJQsqaUBKTNV-1" source="1t3ubWink8qccPeIU27s-10" target="1t3ubWink8qccPeIU27s-11">
          <mxGeometry relative="1" as="geometry" />
        </mxCell>
      </root>
    </mxGraphModel>
  </diagram>
</mxfile>
